ffmpeg started on 2016-12-09 at 07:27:59
Report written to "Output/x264/results/ffmpeg/sintelplacebo2000k.log"
Command line:
Tools/ffmpeg/ffmpeg -benchmark -y -i Input/y4m/sintel.y4m -c:v libx264 -preset placebo -b:v 2000k -an Output/x264/encoded/sintelplacebo2000k.mkv
ffmpeg version N-82227-gdb23fde Copyright (c) 2000-2016 the FFmpeg developers
  built with gcc 5.4.0 (Ubuntu 5.4.0-6ubuntu1~16.04.2) 20160609
  configuration: --prefix=/home/jaroslav/ffmpeg_build --pkg-config-flags=--static --extra-cflags=-I/home/jaroslav/ffmpeg_build/include --extra-ldflags=-L/home/jaroslav/ffmpeg_build/lib --bindir=/home/jaroslav/bin --enable-gpl --enable-libass --enable-libfdk-aac --enable-libfreetype --enable-libmp3lame --enable-libopus --enable-libtheora --enable-libvorbis --enable-libvpx --enable-libx264 --enable-libx265 --enable-nvenc --enable-libmfx --enable-libxvid --enable-libgsm --enable-libopencore-amrnb --enable-version3 --enable-nonfree
  libavutil      55. 35.100 / 55. 35.100
  libavcodec     57. 66.101 / 57. 66.101
  libavformat    57. 57.100 / 57. 57.100
  libavdevice    57.  2.100 / 57.  2.100
  libavfilter     6. 66.100 /  6. 66.100
  libswscale      4.  3.100 /  4.  3.100
  libswresample   2.  4.100 /  2.  4.100
  libpostproc    54.  2.100 / 54.  2.100
Input #0, yuv4mpegpipe, from 'Input/y4m/sintel.y4m':
  Duration: 00:00:20.83, start: 0.000000, bitrate: 2057307 kb/s
    Stream #0:0: Video: rawvideo (I420 / 0x30323449), yuv420p(progressive), 4096x1744, SAR 1:1 DAR 256:109, 24 fps, 24 tbr, 24 tbn, 24 tbc
[libx264 @ 0x2fdd1c0] using SAR=1/1
[libx264 @ 0x2fdd1c0] DPB size (16 frames, 446464 mbs) > level limit (6 frames, 184320 mbs)
[libx264 @ 0x2fdd1c0] using cpu capabilities: MMX2 SSE2Fast SSSE3 SSE4.2 AVX FMA3 AVX2 LZCNT BMI2
[libx264 @ 0x2fdd1c0] profile High, level 5.2
[libx264 @ 0x2fdd1c0] 264 - core 148 - H.264/MPEG-4 AVC codec - Copyleft 2003-2016 - http://www.videolan.org/x264.html - options: cabac=1 ref=16 deblock=1:0:0 analyse=0x3:0x133 me=tesa subme=11 psy=1 psy_rd=1.00:0.00 mixed_ref=1 me_range=24 chroma_me=1 trellis=2 8x8dct=1 cqm=0 deadzone=21,11 fast_pskip=0 chroma_qp_offset=-2 threads=6 lookahead_threads=1 sliced_threads=0 nr=0 decimate=1 interlaced=0 bluray_compat=0 constrained_intra=0 bframes=16 b_pyramid=2 b_adapt=2 b_bias=0 direct=3 weightb=1 open_gop=0 weightp=2 keyint=250 keyint_min=24 scenecut=40 intra_refresh=0 rc_lookahead=60 rc=abr mbtree=1 bitrate=2000 ratetol=1.0 qcomp=0.60 qpmin=0 qpmax=69 qpstep=4 ip_ratio=1.40 aq=1:1.00
Output #0, matroska, to 'Output/x264/encoded/sintelplacebo2000k.mkv':
  Metadata:
    encoder         : Lavf57.57.100
    Stream #0:0: Video: h264 (libx264) (H264 / 0x34363248), yuv420p, 4096x1744 [SAR 1:1 DAR 256:109], q=-1--1, 2000 kb/s, 24 fps, 1k tbn, 24 tbc
    Metadata:
      encoder         : Lavc57.66.101 libx264
    Side data:
      cpb: bitrate max/min/avg: 0/0/2000000 buffer size: 0 vbv_delay: -1
Stream mapping:
  Stream #0:0 -> #0:0 (rawvideo (native) -> h264 (libx264))
Press [q] to stop, [?] for help
frame=   10 fps=0.0 q=0.0 size=       0kB time=00:00:00.00 bitrate=N/A speed=   0x    frame=   18 fps= 17 q=0.0 size=       0kB time=00:00:00.00 bitrate=N/A speed=   0x    frame=   26 fps= 16 q=0.0 size=       0kB time=00:00:00.00 bitrate=N/A speed=   0x    frame=   34 fps= 16 q=0.0 size=       0kB time=00:00:00.00 bitrate=N/A speed=   0x    frame=   42 fps= 16 q=0.0 size=       0kB time=00:00:00.00 bitrate=N/A speed=   0x    frame=   50 fps= 16 q=0.0 size=       0kB time=00:00:00.00 bitrate=N/A speed=   0x    frame=   58 fps= 16 q=0.0 size=       0kB time=00:00:00.00 bitrate=N/A speed=   0x    frame=   66 fps= 16 q=0.0 size=       0kB time=00:00:00.00 bitrate=N/A speed=   0x    frame=   74 fps= 16 q=0.0 size=       0kB time=00:00:00.00 bitrate=N/A speed=   0x    frame=   75 fps=9.6 q=0.0 size=       0kB time=00:00:00.00 bitrate=N/A speed=   0x    frame=   76 fps=6.6 q=0.0 size=       0kB time=00:00:00.00 bitrate=N/A speed=   0x    frame=   77 fps=5.9 q=0.0 size=       0kB time=00:00:00.00 bitrate=N/A speed=   0x    frame=   84 fps=1.4 q=0.0 size=       0kB time=00:00:00.00 bitrate=N/A speed=   0x    frame=   86 fps=1.5 q=0.0 size=       0kB time=00:00:00.00 bitrate=N/A speed=   0x    frame=   88 fps=1.4 q=39.0 size=       1kB time=-00:00:00.08 bitrate=N/A speed=N/A    frame=   90 fps=1.4 q=43.0 size=       1kB time=00:00:00.00 bitrate=5888.0kbits/s speed=1.54e-05x    frame=   92 fps=1.4 q=51.0 size=       1kB time=00:00:00.08 bitrate=  70.1kbits/s speed=0.00124x    frame=   94 fps=1.3 q=54.0 size=       1kB time=00:00:00.16 bitrate=  35.0kbits/s speed=0.0024x    frame=   96 fps=1.3 q=55.0 size=       1kB time=00:00:00.25 bitrate=  23.5kbits/s speed=0.00348x    frame=   98 fps=1.3 q=54.0 size=       1kB time=00:00:00.33 bitrate=  17.6kbits/s speed=0.0045x    frame=   99 fps=1.3 q=55.0 size=       1kB time=00:00:00.37 bitrate=  15.7kbits/s speed=0.005x    frame=  100 fps=1.3 q=55.0 size=       1kB time=00:00:00.41 bitrate=  14.1kbits/s speed=0.00548x    frame=  101 fps=1.3 q=55.0 size=       1kB time=00:00:00.45 bitrate=  12.8kbits/s speed=0.00593x    frame=  103 fps=1.3 q=56.0 size=       1kB time=00:00:00.54 bitrate=  10.8kbits/s speed=0.00683x    frame=  104 fps=1.3 q=56.0 size=       1kB time=00:00:00.58 bitrate=  10.1kbits/s speed=0.00724x    frame=  105 fps=1.3 q=56.0 size=       1kB time=00:00:00.62 bitrate=   9.4kbits/s speed=0.00766x    frame=  106 fps=1.2 q=56.0 size=       1kB time=00:00:00.66 bitrate=   8.8kbits/s speed=0.00772x    frame=  108 fps=1.2 q=56.0 size=       1kB time=00:00:00.75 bitrate=   7.8kbits/s speed=0.00844x    frame=  109 fps=1.2 q=57.0 size=       1kB time=00:00:00.79 bitrate=   7.4kbits/s speed=0.00876x    frame=  110 fps=1.2 q=57.0 size=       1kB time=00:00:00.83 bitrate=   7.1kbits/s speed=0.00882x    frame=  111 fps=1.2 q=57.0 size=       1kB time=00:00:00.87 bitrate=   6.7kbits/s speed=0.00913x    frame=  112 fps=1.1 q=57.0 size=       1kB time=00:00:00.91 bitrate=   6.4kbits/s speed=0.00931x    frame=  113 fps=1.1 q=57.0 size=       1kB time=00:00:00.95 bitrate=   6.1kbits/s speed=0.00959x    frame=  114 fps=1.1 q=57.0 size=       1kB time=00:00:01.00 bitrate=   5.9kbits/s speed=0.00995x    frame=  115 fps=1.1 q=57.0 size=       1kB time=00:00:01.04 bitrate=   5.6kbits/s speed=0.0101x    frame=  116 fps=1.1 q=57.0 size=       1kB time=00:00:01.08 bitrate=   5.4kbits/s speed=0.0102x    frame=  117 fps=1.1 q=57.0 size=       1kB time=00:00:01.12 bitrate=   5.2kbits/s speed=0.0105x    frame=  118 fps=1.1 q=57.0 size=       1kB time=00:00:01.16 bitrate=   5.0kbits/s speed=0.0107x    frame=  119 fps=1.1 q=57.0 size=       1kB time=00:00:01.20 bitrate=   4.9kbits/s speed=0.0109x    frame=  120 fps=1.1 q=57.0 size=       1kB time=00:00:01.25 bitrate=   4.7kbits/s speed=0.0111x    frame=  121 fps=1.1 q=57.0 size=       1kB time=00:00:01.29 bitrate=   4.6kbits/s speed=0.0114x    frame=  122 fps=1.0 q=57.0 size=       1kB time=00:00:01.33 bitrate=   4.4kbits/s speed=0.0115x    frame=  123 fps=1.0 q=57.0 size=       1kB time=00:00:01.37 bitrate=   4.3kbits/s speed=0.0116x    frame=  124 fps=1.0 q=57.0 size=       1kB time=00:00:01.41 bitrate=   4.2kbits/s speed=0.0117x    frame=  125 fps=1.0 q=57.0 size=       1kB time=00:00:01.45 bitrate=   4.0kbits/s speed=0.0119x    frame=  126 fps=1.0 q=57.0 size=       1kB time=00:00:01.50 bitrate=   3.9kbits/s speed=0.0121x    frame=  127 fps=1.0 q=57.0 size=       1kB time=00:00:01.54 bitrate=   3.8kbits/s speed=0.0123x    frame=  128 fps=1.0 q=57.0 size=       1kB time=00:00:01.58 bitrate=   3.7kbits/s speed=0.0125x    frame=  129 fps=1.0 q=57.0 size=       1kB time=00:00:01.62 bitrate=   3.6kbits/s speed=0.0127x    frame=  130 fps=1.0 q=57.0 size=       1kB time=00:00:01.66 bitrate=   3.5kbits/s speed=0.0128x    frame=  131 fps=1.0 q=56.0 size=       1kB time=00:00:01.70 bitrate=   3.4kbits/s speed=0.013x    frame=  132 fps=1.0 q=56.0 size=       1kB time=00:00:01.75 bitrate=   3.4kbits/s speed=0.0133x    frame=  133 fps=1.0 q=56.0 size=       1kB time=00:00:01.79 bitrate=   3.3kbits/s speed=0.0134x    frame=  134 fps=1.0 q=56.0 size=       1kB time=00:00:01.83 bitrate=   3.2kbits/s speed=0.0136x    frame=  135 fps=1.0 q=56.0 size=       1kB time=00:00:01.87 bitrate=   3.1kbits/s speed=0.0138x    frame=  136 fps=1.0 q=56.0 size=       1kB time=00:00:01.91 bitrate=   3.1kbits/s speed=0.0138x    frame=  137 fps=1.0 q=56.0 size=       1kB time=00:00:01.95 bitrate=   3.0kbits/s speed=0.014x    frame=  138 fps=1.0 q=56.0 size=       1kB time=00:00:02.00 bitrate=   2.9kbits/s speed=0.0141x    frame=  139 fps=1.0 q=56.0 size=       1kB time=00:00:02.04 bitrate=   2.9kbits/s speed=0.0142x    frame=  140 fps=1.0 q=56.0 size=       1kB time=00:00:02.08 bitrate=   2.8kbits/s speed=0.0144x    frame=  141 fps=1.0 q=56.0 size=       1kB time=00:00:02.12 bitrate=   2.8kbits/s speed=0.0145x    frame=  142 fps=0.9 q=56.0 size=       1kB time=00:00:02.16 bitrate=   2.7kbits/s speed=0.0145x    frame=  143 fps=0.9 q=56.0 size=       1kB time=00:00:02.20 bitrate=   2.7kbits/s speed=0.0146x    frame=  144 fps=0.9 q=56.0 size=       1kB time=00:00:02.25 bitrate=   2.6kbits/s speed=0.0147x    frame=  145 fps=0.9 q=56.0 size=       1kB time=00:00:02.29 bitrate=   2.6kbits/s speed=0.0148x    frame=  146 fps=0.9 q=56.0 size=       1kB time=00:00:02.33 bitrate=   2.5kbits/s speed=0.0149x    frame=  147 fps=0.9 q=56.0 size=       1kB time=00:00:02.37 bitrate=   2.5kbits/s speed=0.0151x    frame=  148 fps=0.9 q=56.0 size=       1kB time=00:00:02.41 bitrate=   2.4kbits/s speed=0.015x    frame=  149 fps=0.9 q=56.0 size=       1kB time=00:00:02.45 bitrate=   2.4kbits/s speed=0.0152x    frame=  150 fps=0.9 q=56.0 size=       1kB time=00:00:02.50 bitrate=   2.4kbits/s speed=0.0153x    frame=  151 fps=0.9 q=56.0 size=       1kB time=00:00:02.54 bitrate=   2.3kbits/s speed=0.0155x    frame=  152 fps=0.9 q=56.0 size=       1kB time=00:00:02.58 bitrate=   2.3kbits/s speed=0.0155x    frame=  153 fps=0.9 q=56.0 size=       1kB time=00:00:02.62 bitrate=   2.2kbits/s speed=0.0157x    frame=  154 fps=0.9 q=56.0 size=       1kB time=00:00:02.66 bitrate=   2.2kbits/s speed=0.0155x    frame=  155 fps=0.9 q=56.0 size=       1kB time=00:00:02.70 bitrate=   2.2kbits/s speed=0.0156x    frame=  156 fps=0.9 q=56.0 size=       1kB time=00:00:02.75 bitrate=   2.1kbits/s speed=0.0157x    frame=  157 fps=0.9 q=56.0 size=       1kB time=00:00:02.79 bitrate=   2.1kbits/s speed=0.0159x    frame=  158 fps=0.9 q=56.0 size=       1kB time=00:00:02.83 bitrate=   2.1kbits/s speed=0.0159x    frame=  159 fps=0.9 q=56.0 size=       1kB time=00:00:02.87 bitrate=   2.0kbits/s speed=0.016x    frame=  160 fps=0.9 q=56.0 size=       1kB time=00:00:02.91 bitrate=   2.0kbits/s speed=0.0159x    frame=  161 fps=0.9 q=56.0 size=       1kB time=00:00:02.95 bitrate=   2.0kbits/s speed=0.016x    frame=  162 fps=0.9 q=56.0 size=       1kB time=00:00:03.00 bitrate=   2.0kbits/s speed=0.0161x    frame=  163 fps=0.9 q=56.0 size=       1kB time=00:00:03.04 bitrate=   1.9kbits/s speed=0.0163x    frame=  164 fps=0.9 q=56.0 size=       1kB time=00:00:03.08 bitrate=   1.9kbits/s speed=0.0163x    frame=  165 fps=0.9 q=56.0 size=       1kB time=00:00:03.12 bitrate=   1.9kbits/s speed=0.0165x    frame=  166 fps=0.9 q=56.0 size=       1kB time=00:00:03.16 bitrate=   1.9kbits/s speed=0.0164x    frame=  167 fps=0.9 q=56.0 size=       1kB time=00:00:03.20 bitrate=   1.8kbits/s speed=0.0164x    frame=  168 fps=0.9 q=56.0 size=       1kB time=00:00:03.25 bitrate=   1.8kbits/s speed=0.0165x    frame=  169 fps=0.9 q=56.0 size=       1kB time=00:00:03.29 bitrate=   1.8kbits/s speed=0.0166x    frame=  170 fps=0.9 q=56.0 size=       1kB time=00:00:03.33 bitrate=   1.8kbits/s speed=0.0167x    frame=  171 fps=0.9 q=56.0 size=       1kB time=00:00:03.37 bitrate=   1.7kbits/s speed=0.0168x    frame=  172 fps=0.8 q=56.0 size=       1kB time=00:00:03.41 bitrate=   1.7kbits/s speed=0.0168x    frame=  173 fps=0.8 q=56.0 size=       1kB time=00:00:03.45 bitrate=   1.7kbits/s speed=0.0168x    frame=  174 fps=0.8 q=56.0 size=       1kB time=00:00:03.50 bitrate=   1.7kbits/s speed=0.0169x    frame=  175 fps=0.8 q=56.0 size=       1kB time=00:00:03.54 bitrate=   1.7kbits/s speed=0.0169x    frame=  176 fps=0.8 q=56.0 size=       1kB time=00:00:03.58 bitrate=   1.6kbits/s speed=0.017x    frame=  177 fps=0.8 q=57.0 size=       1kB time=00:00:03.62 bitrate=   1.6kbits/s speed=0.017x    frame=  178 fps=0.8 q=57.0 size=       1kB time=00:00:03.66 bitrate=   1.6kbits/s speed=0.0171x    frame=  179 fps=0.8 q=57.0 size=       1kB time=00:00:03.70 bitrate=   1.6kbits/s speed=0.0171x    frame=  180 fps=0.8 q=57.0 size=       1kB time=00:00:03.75 bitrate=   1.6kbits/s speed=0.0172x    frame=  181 fps=0.8 q=57.0 size=       1kB time=00:00:03.79 bitrate=   1.6kbits/s speed=0.0171x    frame=  182 fps=0.8 q=57.0 size=       1kB time=00:00:03.83 bitrate=   1.5kbits/s speed=0.0173x    frame=  183 fps=0.8 q=57.0 size=       1kB time=00:00:03.87 bitrate=   1.5kbits/s speed=0.0173x    frame=  184 fps=0.8 q=57.0 size=       1kB time=00:00:03.91 bitrate=   1.5kbits/s speed=0.0174x    frame=  185 fps=0.8 q=57.0 size=       1kB time=00:00:03.95 bitrate=   1.5kbits/s speed=0.0175x    frame=  186 fps=0.8 q=57.0 size=       1kB time=00:00:04.00 bitrate=   1.5kbits/s speed=0.0175x    frame=  187 fps=0.8 q=57.0 size=       1kB time=00:00:04.04 bitrate=   1.5kbits/s speed=0.0175x    frame=  188 fps=0.8 q=57.0 size=       1kB time=00:00:04.08 bitrate=   1.4kbits/s speed=0.0176x    frame=  189 fps=0.8 q=57.0 size=       1kB time=00:00:04.12 bitrate=   1.4kbits/s speed=0.0177x    frame=  190 fps=0.8 q=57.0 size=       1kB time=00:00:04.16 bitrate=   1.4kbits/s speed=0.0178x    frame=  191 fps=0.8 q=57.0 size=       1kB time=00:00:04.20 bitrate=   1.4kbits/s speed=0.0179x    frame=  192 fps=0.8 q=57.0 size=       1kB time=00:00:04.25 bitrate=   1.4kbits/s speed=0.018x    frame=  193 fps=0.8 q=56.0 size=       1kB time=00:00:04.29 bitrate=   1.4kbits/s speed=0.0179x    frame=  194 fps=0.8 q=56.0 size=       1kB time=00:00:04.33 bitrate=   1.4kbits/s speed=0.018x    frame=  195 fps=0.8 q=56.0 size=       1kB time=00:00:04.37 bitrate=   1.3kbits/s speed=0.0181x    frame=  196 fps=0.8 q=56.0 size=       1kB time=00:00:04.41 bitrate=   1.3kbits/s speed=0.0182x    frame=  197 fps=0.8 q=56.0 size=       1kB time=00:00:04.45 bitrate=   1.3kbits/s speed=0.0184x    frame=  198 fps=0.8 q=56.0 size=       1kB time=00:00:04.50 bitrate=   1.3kbits/s speed=0.0185x    frame=  199 fps=0.8 q=56.0 size=       1kB time=00:00:04.54 bitrate=   1.3kbits/s speed=0.0183x    frame=  200 fps=0.8 q=56.0 size=       1kB time=00:00:04.58 bitrate=   1.3kbits/s speed=0.0184x    frame=  201 fps=0.8 q=56.0 size=       1kB time=00:00:04.62 bitrate=   1.3kbits/s speed=0.0184x    frame=  202 fps=0.8 q=56.0 size=       1kB time=00:00:04.66 bitrate=   1.3kbits/s speed=0.0185x    frame=  203 fps=0.8 q=56.0 size=       1kB time=00:00:04.70 bitrate=   1.3kbits/s speed=0.0186x    frame=  204 fps=0.8 q=56.0 size=       1kB time=00:00:04.75 bitrate=   1.2kbits/s speed=0.0184x    frame=  205 fps=0.8 q=56.0 size=       1kB time=00:00:04.79 bitrate=   1.2kbits/s speed=0.0185x    frame=  206 fps=0.8 q=56.0 size=       1kB time=00:00:04.83 bitrate=   1.2kbits/s speed=0.0186x    frame=  208 fps=0.8 q=56.0 size=    1383kB time=00:00:04.91 bitrate=2304.1kbits/s speed=0.0189x    frame=  209 fps=0.8 q=56.0 size=    1383kB time=00:00:04.95 bitrate=2285.0kbits/s speed=0.0189x    frame=  211 fps=0.8 q=56.0 size=    1383kB time=00:00:05.04 bitrate=2247.0kbits/s speed=0.0189x    frame=  212 fps=0.8 q=56.0 size=    1383kB time=00:00:05.08 bitrate=2228.9kbits/s speed=0.0189x    frame=  213 fps=0.8 q=56.0 size=    1383kB time=00:00:05.12 bitrate=2210.6kbits/s speed=0.0189x    frame=  214 fps=0.8 q=56.0 size=    1383kB time=00:00:05.16 bitrate=2192.6kbits/s speed=0.019x    frame=  215 fps=0.8 q=56.0 size=    1383kB time=00:00:05.20 bitrate=2175.4kbits/s speed=0.019x    frame=  216 fps=0.8 q=56.0 size=    1383kB time=00:00:05.25 bitrate=2158.0kbits/s speed=0.0191x    frame=  217 fps=0.8 q=56.0 size=    1383kB time=00:00:05.29 bitrate=2140.9kbits/s speed=0.019x    frame=  218 fps=0.8 q=56.0 size=    1383kB time=00:00:05.33 bitrate=2124.4kbits/s speed=0.019x    frame=  219 fps=0.8 q=57.0 size=    1383kB time=00:00:05.37 bitrate=2107.8kbits/s speed=0.0191x    frame=  220 fps=0.8 q=57.0 size=    1383kB time=00:00:05.41 bitrate=2091.5kbits/s speed=0.0191x    frame=  221 fps=0.8 q=57.0 size=    1383kB time=00:00:05.45 bitrate=2075.8kbits/s speed=0.0191x    frame=  222 fps=0.8 q=57.0 size=    1383kB time=00:00:05.50 bitrate=2059.9kbits/s speed=0.0191x    frame=  223 fps=0.8 q=57.0 size=    1383kB time=00:00:05.54 bitrate=2044.3kbits/s speed=0.019x    frame=  224 fps=0.8 q=57.0 size=    1383kB time=00:00:05.58 bitrate=2029.3kbits/s speed=0.019x    frame=  225 fps=0.8 q=57.0 size=    1383kB time=00:00:05.62 bitrate=2014.1kbits/s speed=0.0191x    frame=  226 fps=0.8 q=57.0 size=    1383kB time=00:00:05.66 bitrate=1999.2kbits/s speed=0.0191x    frame=  227 fps=0.8 q=57.0 size=    1383kB time=00:00:05.70 bitrate=1984.9kbits/s speed=0.0191x    frame=  228 fps=0.8 q=57.0 size=    1383kB time=00:00:05.75 bitrate=1970.4kbits/s speed=0.0192x    frame=  229 fps=0.8 q=57.0 size=    1383kB time=00:00:05.79 bitrate=1956.1kbits/s speed=0.0192x    frame=  230 fps=0.8 q=57.0 size=    1383kB time=00:00:05.83 bitrate=1942.3kbits/s speed=0.0192x    frame=  231 fps=0.8 q=57.0 size=    1383kB time=00:00:05.87 bitrate=1928.4kbits/s speed=0.0192x    frame=  232 fps=0.8 q=57.0 size=    1383kB time=00:00:05.91 bitrate=1914.8kbits/s speed=0.0193x    frame=  233 fps=0.8 q=57.0 size=    1383kB time=00:00:05.95 bitrate=1901.6kbits/s speed=0.0193x    frame=  234 fps=0.8 q=57.0 size=    1383kB time=00:00:06.00 bitrate=1888.3kbits/s speed=0.0193x    frame=  235 fps=0.8 q=57.0 size=    1383kB time=00:00:06.04 bitrate=1875.2kbits/s speed=0.0194x    frame=  236 fps=0.7 q=57.0 size=    1383kB time=00:00:06.08 bitrate=1862.5kbits/s speed=0.0193x    frame=  237 fps=0.8 q=57.0 size=    1383kB time=00:00:06.12 bitrate=1849.7kbits/s speed=0.0194x    frame=  238 fps=0.8 q=57.0 size=    1383kB time=00:00:06.16 bitrate=1837.1kbits/s speed=0.0194x    frame=  239 fps=0.7 q=57.0 size=    1383kB time=00:00:06.20 bitrate=1825.0kbits/s speed=0.0195x    frame=  240 fps=0.8 q=57.0 size=    1383kB time=00:00:06.25 bitrate=1812.8kbits/s speed=0.0196x    frame=  241 fps=0.8 q=57.0 size=    1383kB time=00:00:06.29 bitrate=1800.7kbits/s speed=0.0196x    frame=  242 fps=0.8 q=57.0 size=    1383kB time=00:00:06.33 bitrate=1789.0kbits/s speed=0.0197x    frame=  243 fps=0.8 q=57.0 size=    1383kB time=00:00:06.37 bitrate=1777.2kbits/s speed=0.0198x    frame=  245 fps=0.7 q=57.0 size=    1383kB time=00:00:06.45 bitrate=1754.4kbits/s speed=0.0196x    frame=  246 fps=0.7 q=57.0 size=    1383kB time=00:00:06.50 bitrate=1743.0kbits/s speed=0.0196x    frame=  247 fps=0.7 q=57.0 size=    1383kB time=00:00:06.54 bitrate=1731.9kbits/s speed=0.0197x    frame=  248 fps=0.7 q=57.0 size=    1383kB time=00:00:06.58 bitrate=1721.1kbits/s speed=0.0197x    frame=  249 fps=0.7 q=57.0 size=    1383kB time=00:00:06.62 bitrate=1710.2kbits/s speed=0.0198x    frame=  250 fps=0.7 q=57.0 size=    1383kB time=00:00:06.66 bitrate=1699.4kbits/s speed=0.0198x    frame=  251 fps=0.7 q=57.0 size=    1383kB time=00:00:06.70 bitrate=1689.0kbits/s speed=0.0198x    frame=  252 fps=0.7 q=57.0 size=    1383kB time=00:00:06.75 bitrate=1678.5kbits/s speed=0.0198x    frame=  253 fps=0.7 q=57.0 size=    1383kB time=00:00:06.79 bitrate=1668.1kbits/s speed=0.0198x    frame=  254 fps=0.7 q=57.0 size=    1383kB time=00:00:06.83 bitrate=1658.1kbits/s speed=0.0199x    frame=  255 fps=0.7 q=57.0 size=    1383kB time=00:00:06.87 bitrate=1648.0kbits/s speed=0.0199x    frame=  256 fps=0.7 q=57.0 size=    1383kB time=00:00:06.91 bitrate=1638.0kbits/s speed=0.02x    frame=  257 fps=0.7 q=57.0 size=    1383kB time=00:00:06.95 bitrate=1628.3kbits/s speed=0.0199x    frame=  258 fps=0.7 q=57.0 size=    1383kB time=00:00:07.00 bitrate=1618.6kbits/s speed=0.0199x    frame=  259 fps=0.7 q=57.0 size=    1383kB time=00:00:07.04 bitrate=1608.9kbits/s speed=0.0199x    frame=  260 fps=0.7 q=57.0 size=    1383kB time=00:00:07.08 bitrate=1599.6kbits/s speed=0.0199x    frame=  261 fps=0.7 q=57.0 size=    1383kB time=00:00:07.12 bitrate=1590.2kbits/s speed=0.02x    frame=  262 fps=0.7 q=57.0 size=    1383kB time=00:00:07.16 bitrate=1580.9kbits/s speed=0.02x    frame=  263 fps=0.7 q=57.0 size=    1383kB time=00:00:07.20 bitrate=1571.9kbits/s speed=0.02x    frame=  264 fps=0.7 q=57.0 size=    1383kB time=00:00:07.25 bitrate=1562.8kbits/s speed=0.0199x    frame=  265 fps=0.7 q=57.0 size=    1383kB time=00:00:07.29 bitrate=1553.8kbits/s speed=0.0199x    frame=  266 fps=0.7 q=57.0 size=    1383kB time=00:00:07.33 bitrate=1545.1kbits/s speed=0.02x    frame=  267 fps=0.7 q=57.0 size=    1383kB time=00:00:07.37 bitrate=1536.3kbits/s speed=0.02x    frame=  268 fps=0.7 q=57.0 size=    1383kB time=00:00:07.41 bitrate=1527.6kbits/s speed=0.02x    frame=  269 fps=0.7 q=57.0 size=    1383kB time=00:00:07.45 bitrate=1519.2kbits/s speed=0.0201x    frame=  270 fps=0.7 q=57.0 size=    1383kB time=00:00:07.50 bitrate=1510.7kbits/s speed=0.0201x    frame=  271 fps=0.7 q=57.0 size=    1383kB time=00:00:07.54 bitrate=1502.3kbits/s speed=0.0201x    frame=  272 fps=0.7 q=57.0 size=    1383kB time=00:00:07.58 bitrate=1494.1kbits/s speed=0.02x    frame=  273 fps=0.7 q=57.0 size=    1383kB time=00:00:07.62 bitrate=1485.9kbits/s speed=0.0201x    frame=  274 fps=0.7 q=57.0 size=    1383kB time=00:00:07.66 bitrate=1477.8kbits/s speed=0.0202x    frame=  277 fps=0.7 q=57.0 size=    1383kB time=00:00:07.79 bitrate=1454.1kbits/s speed=0.0204x    frame=  278 fps=0.7 q=57.0 size=    1383kB time=00:00:07.83 bitrate=1446.5kbits/s speed=0.0205x    frame=  279 fps=0.7 q=57.0 size=    1383kB time=00:00:07.87 bitrate=1438.7kbits/s speed=0.0203x    frame=  280 fps=0.7 q=57.0 size=    1383kB time=00:00:07.91 bitrate=1431.1kbits/s speed=0.0204x    frame=  281 fps=0.7 q=57.0 size=    1383kB time=00:00:07.95 bitrate=1423.7kbits/s speed=0.0204x    frame=  282 fps=0.7 q=57.0 size=    1383kB time=00:00:08.00 bitrate=1416.3kbits/s speed=0.0205x    frame=  283 fps=0.7 q=57.0 size=    1383kB time=00:00:08.04 bitrate=1408.9kbits/s speed=0.0206x    frame=  284 fps=0.7 q=57.0 size=    1383kB time=00:00:08.08 bitrate=1401.7kbits/s speed=0.0206x    frame=  285 fps=0.7 q=57.0 size=    1383kB time=00:00:08.12 bitrate=1394.5kbits/s speed=0.0205x    frame=  286 fps=0.7 q=57.0 size=    1383kB time=00:00:08.16 bitrate=1387.3kbits/s speed=0.0205x    frame=  287 fps=0.7 q=57.0 size=    1383kB time=00:00:08.20 bitrate=1380.4kbits/s speed=0.0205x    frame=  288 fps=0.7 q=57.0 size=    1383kB time=00:00:08.25 bitrate=1373.4kbits/s speed=0.0206x    frame=  289 fps=0.7 q=57.0 size=    1383kB time=00:00:08.29 bitrate=1366.4kbits/s speed=0.0206x    frame=  290 fps=0.7 q=57.0 size=    1383kB time=00:00:08.33 bitrate=1359.7kbits/s speed=0.0206x    frame=  291 fps=0.7 q=57.0 size=    1383kB time=00:00:08.37 bitrate=1352.9kbits/s speed=0.0206x    frame=  292 fps=0.7 q=57.0 size=    1383kB time=00:00:08.41 bitrate=1346.1kbits/s speed=0.0206x    frame=  293 fps=0.7 q=57.0 size=    1383kB time=00:00:08.45 bitrate=1339.6kbits/s speed=0.0206x    frame=  294 fps=0.7 q=57.0 size=    1383kB time=00:00:08.50 bitrate=1333.0kbits/s speed=0.0207x    frame=  295 fps=0.7 q=57.0 size=    1383kB time=00:00:08.54 bitrate=1326.4kbits/s speed=0.0207x    frame=  296 fps=0.7 q=57.0 size=    1383kB time=00:00:08.58 bitrate=1320.1kbits/s speed=0.0208x    frame=  297 fps=0.7 q=57.0 size=    1383kB time=00:00:08.62 bitrate=1313.6kbits/s speed=0.0206x    frame=  299 fps=0.7 q=57.0 size=    1383kB time=00:00:08.70 bitrate=1301.1kbits/s speed=0.0208x    frame=  300 fps=0.7 q=57.0 size=    1383kB time=00:00:08.75 bitrate=1294.9kbits/s speed=0.0208x    frame=  302 fps=0.7 q=57.0 size=    1383kB time=00:00:08.83 bitrate=1282.7kbits/s speed=0.0209x    frame=  303 fps=0.7 q=57.0 size=    1383kB time=00:00:08.87 bitrate=1276.6kbits/s speed=0.0209x    frame=  304 fps=0.7 q=57.0 size=    1383kB time=00:00:08.91 bitrate=1270.6kbits/s speed=0.0209x    frame=  305 fps=0.7 q=57.0 size=    1383kB time=00:00:08.95 bitrate=1264.8kbits/s speed=0.0209x    frame=  306 fps=0.7 q=57.0 size=    1383kB time=00:00:09.00 bitrate=1258.9kbits/s speed=0.021x    frame=  307 fps=0.7 q=57.0 size=    1383kB time=00:00:09.04 bitrate=1253.1kbits/s speed=0.021x    frame=  308 fps=0.7 q=57.0 size=    1383kB time=00:00:09.08 bitrate=1247.4kbits/s speed=0.0211x    frame=  309 fps=0.7 q=57.0 size=    1383kB time=00:00:09.12 bitrate=1241.7kbits/s speed=0.0211x    frame=  310 fps=0.7 q=57.0 size=    1383kB time=00:00:09.16 bitrate=1236.0kbits/s speed=0.0211x    frame=  312 fps=0.7 q=57.0 size=    1383kB time=00:00:09.25 bitrate=1224.9kbits/s speed=0.0212x    frame=  314 fps=0.7 q=56.0 size=    1383kB time=00:00:09.33 bitrate=1214.0kbits/s speed=0.0212x    frame=  315 fps=0.7 q=56.0 size=    1383kB time=00:00:09.37 bitrate=1208.6kbits/s speed=0.0213x    frame=  317 fps=0.7 q=56.0 size=    1383kB time=00:00:09.45 bitrate=1198.0kbits/s speed=0.0214x    frame=  319 fps=0.7 q=56.0 size=    1383kB time=00:00:09.54 bitrate=1187.4kbits/s speed=0.0215x    frame=  320 fps=0.7 q=56.0 size=    1383kB time=00:00:09.58 bitrate=1182.3kbits/s speed=0.0215x    frame=  321 fps=0.7 q=56.0 size=    1383kB time=00:00:09.62 bitrate=1177.2kbits/s speed=0.0214x    frame=  322 fps=0.7 q=56.0 size=    1383kB time=00:00:09.66 bitrate=1172.1kbits/s speed=0.0215x    frame=  323 fps=0.7 q=56.0 size=    1383kB time=00:00:09.70 bitrate=1167.1kbits/s speed=0.0215x    frame=  324 fps=0.7 q=56.0 size=    1383kB time=00:00:09.75 bitrate=1162.1kbits/s speed=0.0216x    frame=  325 fps=0.7 q=56.0 size=    1383kB time=00:00:09.79 bitrate=1157.1kbits/s speed=0.0217x    frame=  326 fps=0.7 q=56.0 size=    1383kB time=00:00:09.83 bitrate=1152.3kbits/s speed=0.0217x    frame=  327 fps=0.7 q=56.0 size=    1383kB time=00:00:09.87 bitrate=1147.4kbits/s speed=0.0217x    frame=  328 fps=0.7 q=56.0 size=    1383kB time=00:00:09.91 bitrate=1142.5kbits/s speed=0.0216x    frame=  329 fps=0.7 q=56.0 size=    2518kB time=00:00:09.95 bitrate=2071.5kbits/s speed=0.0217x    frame=  330 fps=0.7 q=56.0 size=    2518kB time=00:00:10.00 bitrate=2062.8kbits/s speed=0.0217x    frame=  332 fps=0.7 q=56.0 size=    2518kB time=00:00:10.08 bitrate=2045.8kbits/s speed=0.0218x    frame=  333 fps=0.7 q=53.0 size=    2518kB time=00:00:10.12 bitrate=2037.4kbits/s speed=0.0218x    frame=  334 fps=0.7 q=56.0 size=    2518kB time=00:00:10.16 bitrate=2028.9kbits/s speed=0.0218x    frame=  335 fps=0.7 q=56.0 size=    2518kB time=00:00:10.20 bitrate=2020.8kbits/s speed=0.0218x    frame=  336 fps=0.7 q=56.0 size=    2518kB time=00:00:10.25 bitrate=2012.5kbits/s speed=0.0218x    frame=  337 fps=0.7 q=56.0 size=    2518kB time=00:00:10.29 bitrate=2004.3kbits/s speed=0.0219x    frame=  338 fps=0.7 q=56.0 size=    2597kB time=00:00:10.33 bitrate=2058.6kbits/s speed=0.0219x    frame=  344 fps=0.7 q=56.0 size=    2597kB time=00:00:10.58 bitrate=2010.0kbits/s speed=0.0224x    frame=  346 fps=0.7 q=56.0 size=    2597kB time=00:00:10.66 bitrate=1994.1kbits/s speed=0.0225x    frame=  347 fps=0.7 q=56.0 size=    2597kB time=00:00:10.70 bitrate=1986.5kbits/s speed=0.0226x    frame=  350 fps=0.7 q=55.0 size=    2597kB time=00:00:10.83 bitrate=1963.6kbits/s speed=0.0228x    frame=  351 fps=0.7 q=55.0 size=    2597kB time=00:00:10.87 bitrate=1956.0kbits/s speed=0.0228x    frame=  355 fps=0.7 q=55.0 size=    2597kB time=00:00:11.04 bitrate=1926.4kbits/s speed=0.0229x    frame=  358 fps=0.7 q=55.0 size=    2597kB time=00:00:11.16 bitrate=1904.9kbits/s speed=0.0232x    frame=  360 fps=0.7 q=55.0 size=    2597kB time=00:00:11.25 bitrate=1890.8kbits/s speed=0.0233x    frame=  361 fps=0.7 q=55.0 size=    2597kB time=00:00:11.29 bitrate=1883.8kbits/s speed=0.0232x    frame=  363 fps=0.7 q=55.0 size=    2597kB time=00:00:11.37 bitrate=1870.0kbits/s speed=0.0233x    frame=  365 fps=0.7 q=55.0 size=    2597kB time=00:00:11.45 bitrate=1856.5kbits/s speed=0.0234x    frame=  367 fps=0.7 q=55.0 size=    2597kB time=00:00:11.54 bitrate=1843.0kbits/s speed=0.0235x    frame=  368 fps=0.7 q=55.0 size=    2597kB time=00:00:11.58 bitrate=1836.5kbits/s speed=0.0236x    frame=  369 fps=0.7 q=55.0 size=    2597kB time=00:00:11.62 bitrate=1829.8kbits/s speed=0.0234x    frame=  371 fps=0.7 q=55.0 size=    2597kB time=00:00:11.70 bitrate=1816.9kbits/s speed=0.0236x    frame=  372 fps=0.7 q=55.0 size=    2597kB time=00:00:11.75 bitrate=1810.4kbits/s speed=0.0236x    frame=  374 fps=0.8 q=54.0 size=    2597kB time=00:00:11.83 bitrate=1797.7kbits/s speed=0.0237x    frame=  376 fps=0.7 q=55.0 size=    2597kB time=00:00:11.91 bitrate=1785.0kbits/s speed=0.0237x    frame=  378 fps=0.7 q=54.0 size=    2597kB time=00:00:12.00 bitrate=1772.7kbits/s speed=0.0238x    frame=  380 fps=0.8 q=54.0 size=    2597kB time=00:00:12.08 bitrate=1760.5kbits/s speed=0.0239x    frame=  382 fps=0.8 q=54.0 size=    2597kB time=00:00:12.16 bitrate=1748.3kbits/s speed=0.0241x    frame=  383 fps=0.8 q=54.0 size=    2597kB time=00:00:12.20 bitrate=1742.5kbits/s speed=0.0241x    frame=  384 fps=0.8 q=54.0 size=    2597kB time=00:00:12.25 bitrate=1736.5kbits/s speed=0.0242x    frame=  385 fps=0.8 q=54.0 size=    2597kB time=00:00:12.29 bitrate=1730.5kbits/s speed=0.0241x    frame=  387 fps=0.8 q=54.0 size=    2597kB time=00:00:12.37 bitrate=1718.9kbits/s speed=0.0242x    frame=  388 fps=0.8 q=54.0 size=    2597kB time=00:00:12.41 bitrate=1713.1kbits/s speed=0.0242x    frame=  390 fps=0.8 q=54.0 size=    2597kB time=00:00:12.50 bitrate=1701.7kbits/s speed=0.0244x    frame=  391 fps=0.8 q=54.0 size=    2597kB time=00:00:12.54 bitrate=1696.1kbits/s speed=0.0244x    frame=  392 fps=0.8 q=54.0 size=    2597kB time=00:00:12.58 bitrate=1690.5kbits/s speed=0.0245x    frame=  394 fps=0.8 q=53.0 size=    2597kB time=00:00:12.66 bitrate=1679.3kbits/s speed=0.0245x    frame=  396 fps=0.8 q=54.0 size=    2597kB time=00:00:12.75 bitrate=1668.4kbits/s speed=0.0246x    frame=  400 fps=0.8 q=53.0 size=    2597kB time=00:00:12.91 bitrate=1646.8kbits/s speed=0.0247x    frame=  403 fps=0.8 q=53.0 size=    2597kB time=00:00:13.04 bitrate=1631.0kbits/s speed=0.0249x    frame=  406 fps=0.8 q=53.0 size=    2597kB time=00:00:13.16 bitrate=1615.6kbits/s speed=0.0249x    frame=  408 fps=0.8 q=53.0 size=    2597kB time=00:00:13.25 bitrate=1605.4kbits/s speed=0.025x    frame=  411 fps=0.8 q=53.0 size=    2597kB time=00:00:13.37 bitrate=1590.4kbits/s speed=0.0252x    frame=  412 fps=0.8 q=53.0 size=    2597kB time=00:00:13.41 bitrate=1585.5kbits/s speed=0.0252x    frame=  416 fps=0.8 q=52.0 size=    2597kB time=00:00:13.58 bitrate=1566.1kbits/s speed=0.0253x    frame=  418 fps=0.8 q=52.0 size=    2597kB time=00:00:13.66 bitrate=1556.5kbits/s speed=0.0255x    frame=  421 fps=0.8 q=52.0 size=    2597kB time=00:00:13.79 bitrate=1542.3kbits/s speed=0.0255x    frame=  422 fps=0.8 q=52.0 size=    2597kB time=00:00:13.83 bitrate=1537.8kbits/s speed=0.0256x    frame=  426 fps=0.8 q=52.0 size=    2597kB time=00:00:14.00 bitrate=1519.4kbits/s speed=0.0257x    frame=  428 fps=0.8 q=52.0 size=    2597kB time=00:00:14.08 bitrate=1510.5kbits/s speed=0.0258x    frame=  432 fps=0.8 q=51.0 size=    2597kB time=00:00:14.25 bitrate=1492.8kbits/s speed=0.0259x    frame=  434 fps=0.8 q=52.0 size=    2597kB time=00:00:14.33 bitrate=1484.1kbits/s speed=0.026x    frame=  438 fps=0.8 q=51.0 size=    2597kB time=00:00:14.50 bitrate=1467.0kbits/s speed=0.0261x    frame=  440 fps=0.8 q=51.0 size=    2597kB time=00:00:14.58 bitrate=1458.7kbits/s speed=0.0262x    frame=  444 fps=0.8 q=51.0 size=    2597kB time=00:00:14.75 bitrate=1442.2kbits/s speed=0.0263x    frame=  446 fps=0.8 q=51.0 size=    2597kB time=00:00:14.83 bitrate=1434.1kbits/s speed=0.0265x    frame=  448 fps=0.8 q=51.0 size=    2597kB time=00:00:14.91 bitrate=1426.0kbits/s speed=0.0263x    frame=  450 fps=0.8 q=51.0 size=    2597kB time=00:00:15.00 bitrate=1418.1kbits/s speed=0.0264x    frame=  452 fps=0.8 q=51.0 size=    2597kB time=00:00:15.08 bitrate=1410.3kbits/s speed=0.0264x    frame=  453 fps=0.8 q=51.0 size=    2597kB time=00:00:15.12 bitrate=1406.4kbits/s speed=0.0265x    frame=  454 fps=0.8 q=51.0 size=    2597kB time=00:00:15.16 bitrate=1402.5kbits/s speed=0.0265x    frame=  455 fps=0.8 q=51.0 size=    2597kB time=00:00:15.20 bitrate=1398.7kbits/s speed=0.0263x    frame=  456 fps=0.8 q=51.0 size=    2597kB time=00:00:15.25 bitrate=1394.9kbits/s speed=0.0263x    frame=  457 fps=0.8 q=50.0 size=    2597kB time=00:00:15.29 bitrate=1391.1kbits/s speed=0.0264x    frame=  459 fps=0.8 q=51.0 size=    3194kB time=00:00:15.37 bitrate=1701.5kbits/s speed=0.0264x    frame=  460 fps=0.8 q=51.0 size=    3194kB time=00:00:15.41 bitrate=1696.8kbits/s speed=0.0265x    frame=  461 fps=0.8 q=50.0 size=    3194kB time=00:00:15.45 bitrate=1692.3kbits/s speed=0.0265x    frame=  463 fps=0.8 q=50.0 size=    3194kB time=00:00:15.54 bitrate=1683.2kbits/s speed=0.0264x    frame=  465 fps=0.8 q=50.0 size=    3194kB time=00:00:15.62 bitrate=1674.3kbits/s speed=0.0265x    frame=  467 fps=0.8 q=50.0 size=    3194kB time=00:00:15.70 bitrate=1665.4kbits/s speed=0.0266x    frame=  469 fps=0.8 q=50.0 size=    3194kB time=00:00:15.79 bitrate=1656.5kbits/s speed=0.0267x    frame=  470 fps=0.8 q=50.0 size=    3194kB time=00:00:15.83 bitrate=1652.3kbits/s speed=0.0265x    frame=  472 fps=0.8 q=50.0 size=    3194kB time=00:00:15.91 bitrate=1643.5kbits/s speed=0.0267x    frame=  476 fps=0.8 q=50.0 size=    3194kB time=00:00:16.08 bitrate=1626.6kbits/s speed=0.0266x    frame=  479 fps=0.8 q=50.0 size=    3194kB time=00:00:16.20 bitrate=1614.0kbits/s speed=0.0268x    frame=  481 fps=0.8 q=50.0 size=    3194kB time=00:00:16.29 bitrate=1605.7kbits/s speed=0.0269x    frame=  482 fps=0.8 q=50.0 size=    3194kB time=00:00:16.33 bitrate=1601.7kbits/s speed=0.0269x    frame=  483 fps=0.8 q=50.0 size=    3194kB time=00:00:16.37 bitrate=1597.6kbits/s speed=0.0267x    frame=  484 fps=0.8 q=50.0 size=    3194kB time=00:00:16.41 bitrate=1593.5kbits/s speed=0.0267x    frame=  485 fps=0.8 q=50.0 size=    3194kB time=00:00:16.45 bitrate=1589.5kbits/s speed=0.0268x    frame=  487 fps=0.8 q=50.0 size=    3194kB time=00:00:16.54 bitrate=1581.4kbits/s speed=0.0268x    frame=  488 fps=0.8 q=50.0 size=    3194kB time=00:00:16.58 bitrate=1577.5kbits/s speed=0.0269x    frame=  489 fps=0.8 q=50.0 size=    3194kB time=00:00:16.62 bitrate=1573.6kbits/s speed=0.0269x    frame=  490 fps=0.8 q=50.0 size=    3194kB time=00:00:16.66 bitrate=1569.6kbits/s speed=0.0267x    frame=  491 fps=0.8 q=50.0 size=    3194kB time=00:00:16.70 bitrate=1565.7kbits/s speed=0.0267x    frame=  493 fps=0.8 q=50.0 size=    3194kB time=00:00:16.79 bitrate=1557.9kbits/s speed=0.0268x    frame=  494 fps=0.8 q=50.0 size=    3194kB time=00:00:16.83 bitrate=1554.1kbits/s speed=0.0268x    frame=  495 fps=0.8 q=50.0 size=    3194kB time=00:00:16.87 bitrate=1550.2kbits/s speed=0.0268x    frame=  497 fps=0.8 q=50.0 size=    3194kB time=00:00:16.95 bitrate=1542.7kbits/s speed=0.0267x    frame=  498 fps=0.8 q=50.0 size=    3194kB time=00:00:17.00 bitrate=1538.8kbits/s speed=0.0268x    frame=  500 fps=0.8 q=50.0 size=    3194kB time=00:00:17.08 bitrate=1531.4kbits/s speed=0.0268x    frame=  500 fps=0.7 q=-1.0 Lsize=    4126kB time=00:00:20.70 bitrate=1632.2kbits/s speed=0.0284x    
video:4122kB audio:0kB subtitle:0kB other streams:0kB global headers:0kB muxing overhead: 0.104887%
bench: utime=2663.896s
bench: maxrss=4187340kB
[libx264 @ 0x2fdd1c0] frame I:3     Avg QP:42.82  size: 39228
[libx264 @ 0x2fdd1c0] frame P:267   Avg QP:49.74  size: 11283
[libx264 @ 0x2fdd1c0] frame B:230   Avg QP:47.29  size:  4738
[libx264 @ 0x2fdd1c0] consecutive B-frames: 34.8% 13.6% 12.0% 16.0% 14.0%  9.6%  0.0%  0.0%  0.0%  0.0%  0.0%  0.0%  0.0%  0.0%  0.0%  0.0%  0.0%
[libx264 @ 0x2fdd1c0] mb I  I16..4: 18.9% 54.3% 26.9%
[libx264 @ 0x2fdd1c0] mb P  I16..4:  3.3% 16.2% 27.0%  P16..4:  8.8%  1.7%  0.3%  0.0%  0.0%    skip:42.7%
[libx264 @ 0x2fdd1c0] mb B  I16..4:  0.6%  0.9%  0.4%  B16..8: 15.2%  0.8%  0.1%  direct: 0.1%  skip:82.0%  L0:38.6% L1:60.8% BI: 0.6%
[libx264 @ 0x2fdd1c0] final ratefactor: 47.01
[libx264 @ 0x2fdd1c0] 8x8 transform intra:35.6% inter:85.7%
[libx264 @ 0x2fdd1c0] direct mvs  spatial:98.7% temporal:1.3%
[libx264 @ 0x2fdd1c0] coded y,uvDC,uvAC intra: 2.5% 10.0% 0.0% inter: 0.1% 1.0% 0.0%
[libx264 @ 0x2fdd1c0] i16 v,h,dc,p: 20% 15%  2% 63%
[libx264 @ 0x2fdd1c0] i8 v,h,dc,ddl,ddr,vr,hd,vl,hu:  5%  1% 92%  0%  0%  0%  0%  0%  1%
[libx264 @ 0x2fdd1c0] i4 v,h,dc,ddl,ddr,vr,hd,vl,hu:  3%  0% 97%  0%  0%  0%  0%  0%  0%
[libx264 @ 0x2fdd1c0] i8c dc,h,v,p: 60% 36%  2%  2%
[libx264 @ 0x2fdd1c0] Weighted P-Frames: Y:3.0% UV:2.6%
[libx264 @ 0x2fdd1c0] ref P L0: 30.7% 10.2% 21.5%  6.9%  5.9%  5.1%  5.2%  2.1%  2.0%  1.9%  1.7%  1.6%  1.5%  1.4%  1.6%  0.9%
[libx264 @ 0x2fdd1c0] ref B L0: 82.9%  6.4%  3.9%  1.4%  1.1%  0.9%  0.8%  0.4%  0.4%  0.4%  0.3%  0.3%  0.4%  0.4%  0.1%
[libx264 @ 0x2fdd1c0] ref B L1: 97.8%  2.2%
[libx264 @ 0x2fdd1c0] kb/s:1620.50
